<?xml version="1.0" encoding="UTF-8"?>
<svg width="73px" height="104px" viewBox="0 0 73 104" version="1.1" xmlns="http://www.w3.org/2000/svg" xmlns:xlink="http://www.w3.org/1999/xlink">
    <!-- Generator: Sketch 55.2 (78181) - https://sketchapp.com -->
    <title>map-tag-L</title>
    <desc>Created with Sketch.</desc>
    <g id="logo" stroke="none" stroke-width="1" fill="none" fill-rule="evenodd">
        <g id="img-1" transform="translate(-452.000000, -29.000000)">
            <g id="map-tag-L" transform="translate(452.000000, 29.000000)">
                <ellipse id="椭圆形" fill-opacity="0.25" fill="#000000" cx="38.5" cy="96" rx="26" ry="8"></ellipse>
                <path d="M36.5363027,89.8353751 C36.6247255,89.7465644 36.7140154,89.6569209 36.8042465,89.5663693 C37.7582487,88.6089792 42.1453343,84.2265639 43.3299489,83.036218 C45.8168655,80.5372692 47.783826,78.5274339 49.6235436,76.5939764 C64.3224698,61.1460903 71,49.8630311 71,37.1988449 C71,17.4721208 55.5426289,1.5 36.5,1.5 C17.4573711,1.5 2,17.4721208 2,37.1988449 C2,47.368927 6.49026973,56.5813888 15.9376096,67.7714414 C18.5547123,70.8713104 21.452191,74.0340533 25.5815694,78.3593045 C26.3432612,79.1571265 27.1283653,79.9756629 28.1860764,81.0756603 C27.9625656,80.8432137 30.2262343,83.1964126 30.8385796,83.8340158 C33.0152029,86.10042 34.6356718,87.8033814 36.2285946,89.5060695 C36.3317131,89.6162937 36.4342738,89.7260525 36.5363027,89.8353751 Z" id="MapTag" stroke-opacity="0.60385708" stroke="#FFFFFF" stroke-width="3" fill="#70B12B"></path>
                <path d="M56.237793,48.6442605 L48.94104,41.3471178 C50.4293823,38.7990692 51.2240601,35.8924198 51.2240601,32.862778 C51.2240601,28.3587533 49.4699097,24.123908 46.2850952,20.9389235 C43.1002808,17.7539389 38.8656616,16 34.3615723,16 C29.8577881,16 25.6234741,17.7539389 22.4386597,20.9389235 C19.2538452,24.123908 17.5,28.3587533 17.5,32.862778 C17.5,37.3671079 19.2538452,41.6016481 22.4386597,44.7866326 C25.6234741,47.9716172 29.8577881,49.725556 34.3615723,49.725556 C37.3910523,49.725556 40.2978516,48.9311411 42.8457641,47.4424141 L50.1425171,54.7398619 C50.982666,55.5797505 52.0864868,56 53.1900024,56 C54.2938233,56 55.3973389,55.5797505 56.237793,54.7395567 C57.0516968,53.9256094 57.5,52.8430931 57.5,51.6919086 C57.5,50.5407241 57.0516968,49.4582078 56.237793,48.6442605 Z M34.3615723,23.3648953 C39.5986938,23.3648953 43.859253,27.6256819 43.859253,32.862778 C43.859253,38.0998741 39.5986938,42.3606608 34.3618774,42.3606608 C29.125061,42.3606608 24.864502,38.0998741 24.864502,32.862778 C24.864502,27.6256819 29.125061,23.3648953 34.3615723,23.3648953 Z" id="形状结合" fill="#FFFFFF" fill-rule="nonzero"></path>
            </g>
        </g>
    </g>
</svg>