<?xml version="1.0" encoding="UTF-8"?>
<svg width="73px" height="104px" viewBox="0 0 73 104" version="1.1" xmlns="http://www.w3.org/2000/svg" xmlns:xlink="http://www.w3.org/1999/xlink">
    <!-- Generator: Sketch 55.2 (78181) - https://sketchapp.com -->
    <title>map-tag-S</title>
    <desc>Created with Sketch.</desc>
    <g id="logo" stroke="none" stroke-width="1" fill="none" fill-rule="evenodd">
        <g id="img-1" transform="translate(-43.000000, -142.000000)">
            <g id="map-tag-S" transform="translate(43.000000, 142.000000)">
                <ellipse id="椭圆形" fill-opacity="0.25" fill="#000000" cx="38.5" cy="96" rx="26.5" ry="8"></ellipse>
                <path d="M36.5360887,89.8506624 C36.6331856,89.7544684 36.7313096,89.657302 36.8305568,89.5590667 C37.7977966,88.6016889 42.2458172,84.2192704 43.4468987,83.0289106 C45.9684045,80.5299136 47.9627326,78.5200292 49.828058,76.5865135 C64.7302478,61.1395481 71.5,49.8573578 71.5,37.1988449 C71.5,17.4766165 55.8235319,1.5 36.5,1.5 C17.1764681,1.5 1.5,17.4766165 1.5,37.1988449 C1.5,47.3639012 6.05173544,56.5745435 15.6294892,67.7636624 C18.2830407,70.8636485 21.2208598,74.0264965 25.4076921,78.3518526 C26.1799721,79.1496838 26.9759873,79.9682274 28.0483959,81.0682321 C27.8217833,80.8357881 30.1168885,83.1889835 30.7377354,83.8265835 C32.9445644,86.0929618 34.587515,87.7958974 36.2025308,89.4985529 C36.314353,89.6164432 36.4255282,89.7338011 36.5360887,89.8506624 Z" id="MapTag" stroke-opacity="0.60385708" stroke="#FFFFFF" stroke-width="3" fill="#F27C27"></path>
                <path d="M48.8177821,41.3061224 C50.1511822,42.0462585 52.3946809,43.2761905 52.3523507,46.1931973 C52.361439,51.3818724 48.4352391,55.6778031 43.3995213,55.9891156 C41.7721035,55.8943227 40.1772878,55.4805534 38.7008732,54.770068 C37.6837295,54.2617312 36.5876381,53.9412096 35.4626158,53.8231293 C34.4964759,53.9165312 33.5632407,54.2327611 32.7323203,54.7482993 C31.475338,55.493704 30.0647067,55.9226222 28.615712,56 C24.7425021,56 20.6470588,50.9605442 20.6470588,46.2040816 C20.6470588,43.0040816 23.3985194,41.1210884 26.2981355,39.1292517 C27.0038158,38.5989125 27.656128,37.9972759 28.245323,37.3333333 C29.9385295,35.570068 32.2984361,33.1428571 36.5314524,33.1428571 C40.3094194,33.1428571 42.8386466,35.9292517 44.6905912,37.9755102 C45.1773881,38.5197279 45.6430199,39.0312925 46.0663215,39.4231293 C46.898768,40.1727885 47.8239402,40.8059406 48.8177821,41.3061224 Z M29.5263763,33.1428571 C26.4397457,33.1428571 23.9475,30.4433498 23.572099,26.7684729 C23.4127483,25.2462566 23.7014345,23.7120298 24.4063235,22.3349754 C24.9070769,21.3691051 25.6976932,20.5638784 26.6795852,20.0197044 L26.6795852,17.4778325 C26.6795852,16.6616482 27.3798884,16 28.2437562,16 C29.1076239,16 29.8079271,16.6616482 29.8079271,17.4778325 L29.8079271,19.4482759 C32.5712957,19.8423645 34.708996,22.3842365 35.0218302,25.8029557 C35.3763756,29.6551724 33.144825,32.8768473 29.9434886,33.1428571 L29.5263763,33.1428571 Z M60.3999701,33.4193548 C60.9828366,34.5527074 61.1455598,35.7981342 60.8684072,37.0046083 C60.2742919,39.7327189 57.7721524,41.7142857 54.9158288,41.7142857 C54.6246095,41.7132497 54.3340609,41.691662 54.0475064,41.6497696 C52.2568599,41.3711795 50.763868,40.3785278 50.0829292,39.0138249 C49.4895031,37.87307 49.3226995,36.6171988 49.6030669,35.4009217 C50.1971822,32.6728111 52.6993217,30.6912442 55.5556453,30.6912442 C55.8083746,30.6942538 56.0604558,30.7127401 56.3097147,30.7465438 C56.7242275,30.1550513 56.9518159,29.490323 56.9723818,28.8110599 C56.9723818,28.0475326 57.7396736,27.4285714 58.686176,27.4285714 C59.6326784,27.4285714 60.3999701,28.0475326 60.3999701,28.8110599 C60.3769885,29.9576624 60.0125607,31.0829964 59.3374178,32.0921659 C59.7786931,32.4850199 60.1375882,32.9333005 60.3999701,33.4193548 Z M22.9429235,39.0120815 C22.2969112,40.3704832 20.8812134,41.3624459 19.1785578,41.6497279 C18.9041016,41.6916474 18.6258198,41.713249 18.3468956,41.7142857 C15.6111648,41.7142857 13.2146645,39.7683298 12.6456325,37.0015678 C12.3771021,35.7845055 12.5368633,34.5278235 13.1052353,33.3863322 C13.2331524,33.1462588 13.3831636,32.9149895 13.5538951,32.6946417 C12.5724275,31.5667844 12.029586,30.2103964 12,28.8119524 C12,28.0479322 12.7348971,27.4285714 13.6414385,27.4285714 C14.54798,27.4285714 15.2828771,28.0479322 15.2828771,28.8119524 C15.2900964,29.5692192 15.5643497,30.3075726 16.0707676,30.9331366 C16.5914119,30.7661529 17.1442002,30.6817313 17.7012632,30.684128 C20.436994,30.684128 22.8334943,32.6300839 23.4025263,35.3968459 C23.6710567,36.6139082 23.5112955,37.8705902 22.9429235,39.0120815 Z M43.0901695,33.1428571 C39.8875359,32.8773051 37.6591662,29.6611753 37.9701015,25.7762478 C38.3224948,22.3929186 40.4368549,19.8554217 43.1523565,19.4423408 L43.1523565,17.4752889 C43.1523565,16.6605093 43.8484089,16 44.7070331,16 C45.5656572,16 46.2617096,16.6605093 46.2617096,17.4752889 L46.2617096,19.9734448 C48.3967987,21.0946644 49.7130915,23.7206786 49.4332497,26.7401033 C49.0912208,30.4479961 46.6141029,33.1428571 43.5047499,33.1428571 L43.0901695,33.1428571 Z" id="形状结合" fill-opacity="0.851535184" fill="#FFFFFF"></path>
            </g>
        </g>
    </g>
</svg>