<?xml version="1.0" encoding="UTF-8"?>
<svg width="73px" height="104px" viewBox="0 0 73 104" version="1.1" xmlns="http://www.w3.org/2000/svg" xmlns:xlink="http://www.w3.org/1999/xlink">
    <!-- Generator: Sketch 55.2 (78181) - https://sketchapp.com -->
    <title>map-tag-H</title>
    <desc>Created with Sketch.</desc>
    <g id="logo" stroke="none" stroke-width="1" fill="none" fill-rule="evenodd">
        <g id="img-1" transform="translate(-358.000000, -226.000000)">
            <g id="map-tag-H" transform="translate(358.000000, 226.000000)">
                <ellipse id="椭圆形" fill-opacity="0.25" fill="#000000" cx="38.5" cy="96" rx="26.5" ry="8"></ellipse>
                <path d="M36.5360887,89.8506624 C36.6331856,89.7544684 36.7313096,89.657302 36.8305568,89.5590667 C37.7977966,88.6016889 42.2458172,84.2192704 43.4468987,83.0289106 C45.9684045,80.5299136 47.9627326,78.5200292 49.828058,76.5865135 C64.7302478,61.1395481 71.5,49.8573578 71.5,37.1988449 C71.5,17.4766165 55.8235319,1.5 36.5,1.5 C17.1764681,1.5 1.5,17.4766165 1.5,37.1988449 C1.5,47.3639012 6.05173544,56.5745435 15.6294892,67.7636624 C18.2830407,70.8636485 21.2208598,74.0264965 25.4076921,78.3518526 C26.1799721,79.1496838 26.9759873,79.9682274 28.0483959,81.0682321 C27.8217833,80.8357881 30.1168885,83.1889835 30.7377354,83.8265835 C32.9445644,86.0929618 34.587515,87.7958974 36.2025308,89.4985529 C36.314353,89.6164432 36.4255282,89.7338011 36.5360887,89.8506624 Z" id="MapTag" stroke-opacity="0.60385708" stroke="#FFFFFF" stroke-width="3" fill="#D9183B"></path>
                <path d="M30.35,30 L30.35,17 C30.35,16.4477153 30.7977153,16 31.35,16 L41.65,16 C42.2022847,16 42.65,16.4477153 42.65,17 L42.65,30 L56,30 C56.5522847,30 57,30.4477153 57,31 L57,41 C57,41.5522847 56.5522847,42 56,42 L42.65,42 L42.65,55 C42.65,55.5522847 42.2022847,56 41.65,56 L31.35,56 C30.7977153,56 30.35,55.5522847 30.35,55 L30.35,42 L17,42 C16.4477153,42 16,41.5522847 16,41 L16,31 C16,30.4477153 16.4477153,30 17,30 L30.35,30 Z" id="形状结合" fill="#FFFFFF"></path>
            </g>
        </g>
    </g>
</svg>