<?xml version="1.0" encoding="UTF-8"?>
<svg width="56px" height="56px" viewBox="0 0 56 56" version="1.1" xmlns="http://www.w3.org/2000/svg" xmlns:xlink="http://www.w3.org/1999/xlink">
    <!-- Generator: Sketch 55.2 (78181) - https://sketchapp.com -->
    <title>Adoption_icon</title>
    <desc>Created with Sketch.</desc>
    <defs>
        <circle id="path-1" cx="28" cy="28" r="28"></circle>
    </defs>
    <g id="logo" stroke="none" stroke-width="1" fill="none" fill-rule="evenodd">
        <g id="画板">
            <g id="Adoption_icon">
                <g id="016-transporter" transform="translate(9.000000, 8.000000)" fill="#000000" fill-rule="nonzero">
                    <path d="M39,22.5593719 C39,20.3497925 37.2849426,18.5341644 35.1164246,18.3708114 L32.0139084,9.75327303 C31.280159,7.71537777 29.0086899,6.11904142 26.8428498,6.11904142 L24.9260559,6.11904142 L24.9260559,4.20195004 C24.9260559,1.88495638 23.040802,0 20.7238083,0 L18.2761917,0 C15.959198,0 14.0739441,1.88495638 14.0739441,4.20195004 L14.0739441,6.11904142 L12.1571502,6.11904142 C9.99101254,6.11904142 7.71984098,7.71537777 6.98609163,9.75327303 L3.88387297,18.3708114 C1.71505737,18.5341644 0,20.3497925 0,22.5593719 C0,24.7695465 1.71505737,26.5851746 3.88387297,26.7485275 L6.98609163,35.3657684 C7.71984098,37.4036637 9.99101254,39 12.1571502,39 L26.8428498,39 C29.0089875,39 31.280159,37.4036637 32.0139084,35.3657684 L35.116127,26.7485275 C37.2849426,26.5851746 39,24.7695465 39,22.5593719 Z M16.3591003,4.20195004 C16.3591003,3.14506527 17.219307,2.28515625 18.2761917,2.28515625 L20.7238083,2.28515625 C21.7809906,2.28515625 22.6408997,3.14506527 22.6408997,4.20195004 L22.6408997,6.11904142 L16.3591003,6.11904142 L16.3591003,4.20195004 Z M9.13616179,10.5271912 C9.54320524,9.39621737 10.9547653,8.40419767 12.1568527,8.40419767 L26.8428498,8.40419767 C28.0449372,8.40419767 29.4564972,9.39621737 29.8638382,10.5271912 L32.6827926,18.3574219 L29.1580582,18.3574219 L27.8545075,14.8338776 C27.104393,12.8063965 24.8234024,11.2183914 22.6617279,11.2183914 L16.3382721,11.2183914 C14.1765976,11.2183914 11.895607,12.8063965 11.1454925,14.8338776 L9.84194181,18.3574219 L6.31720736,18.3574219 L9.13616179,10.5271912 Z M27.5257187,24.4764633 L26.1019592,24.4764633 L26.1019592,20.6425781 L27.5257187,20.6425781 C27.7938079,21.7854538 27.7938079,23.3335876 27.5257187,24.4764633 Z M16.3385697,31.6154938 C15.9621735,31.6154938 15.5646515,31.5187912 15.183197,31.3518677 L15.183197,26.7616195 L18.4594803,26.7616195 L18.4594803,31.6154938 L16.3385697,31.6154938 Z M11.4745789,20.6425781 L12.8980408,20.6425781 L12.8980408,24.4764633 L11.4745789,24.4764633 C11.2061921,23.3335876 11.2061921,21.7854538 11.4745789,20.6425781 L11.4745789,20.6425781 Z M22.6617279,13.5035477 C23.0378265,13.5035477 23.4353485,13.5999527 23.8171005,13.7671737 L23.8171005,18.3574219 L20.7446366,18.3574219 L20.7446366,13.5035477 L22.6617279,13.5035477 Z M26.1022568,16.6834259 L26.7214508,18.3574219 L26.1022568,18.3574219 L26.1022568,16.6834259 Z M20.7446366,20.6425781 L23.8171005,20.6425781 L23.8171005,24.4764633 L20.7446366,24.4764633 L20.7446366,20.6425781 Z M18.4594803,24.4764633 L15.183197,24.4764633 L15.183197,20.6425781 L18.4594803,20.6425781 L18.4594803,24.4764633 Z M18.4594803,18.3574219 L15.183197,18.3574219 L15.183197,13.7671737 C15.5646515,13.5999527 15.9621735,13.5035477 16.3385697,13.5035477 L18.4594803,13.5035477 L18.4594803,18.3574219 Z M12.8980408,18.3574219 L12.2785492,18.3574219 L12.8980408,16.6834259 L12.8980408,18.3574219 Z M12.8980408,26.7616195 L12.8980408,28.4359131 L12.2785492,26.7616195 L12.8980408,26.7616195 Z M20.7446366,26.7616195 L23.8171005,26.7616195 L23.8171005,31.3518677 C23.4353485,31.5187912 23.0378265,31.6154938 22.6617279,31.6154938 L20.7446366,31.6154938 L20.7446366,26.7616195 Z M26.1022568,26.7616195 L26.7214508,26.7616195 L26.1022568,28.4359131 L26.1022568,26.7616195 Z M2.28515625,22.5593719 C2.28515625,21.5024871 3.14506527,20.6425781 4.20195004,20.6425781 L4.68457031,20.6425781 C4.68695068,20.6425781 4.68933105,20.6428757 4.69171143,20.6428757 C4.6940918,20.6428757 4.6967697,20.6425781 4.69915007,20.6425781 L9.14479069,20.6425781 C8.93502043,21.8610306 8.93502043,23.2580109 9.14479069,24.4764633 L4.20195004,24.4764633 C3.14506527,24.4764633 2.28515625,23.6165543 2.28515625,22.5593719 Z M29.8638382,34.5918503 C29.4564972,35.7228241 28.0449372,36.7148437 26.8428498,36.7148437 L12.1571502,36.7148437 C10.9550628,36.7148437 9.54350277,35.7228241 9.13616179,34.5915527 L6.31750488,26.7616195 L9.84194181,26.7616195 L11.1457901,30.2851639 C11.8959045,32.3126449 14.1765976,33.9006501 16.3385697,33.9006501 L22.6617279,33.9006501 C24.8234024,33.9006501 27.104393,32.3126449 27.8545075,30.2851639 L29.1580582,26.7616195 L32.6824951,26.7616195 L29.8638382,34.5918503 Z M34.7977524,24.4764633 L29.8552093,24.4764633 C30.0649796,23.2580109 30.0649796,21.8610306 29.8552093,20.6425781 L34.79805,20.6425781 C35.8549347,20.6425781 36.7148437,21.5024871 36.7148437,22.5593719 C36.7148437,23.6165543 35.8549347,24.4764633 34.7977524,24.4764633 Z" id="形状"></path>
                </g>
                <mask id="mask-2" fill="white">
                    <use xlink:href="#path-1"></use>
                </mask>
                <circle stroke="#000000" stroke-width="4" cx="28" cy="28" r="26"></circle>
            </g>
        </g>
    </g>
</svg>