<?xml version="1.0" encoding="UTF-8"?>
<svg width="80px" height="80px" viewBox="0 0 80 80" version="1.1" xmlns="http://www.w3.org/2000/svg" xmlns:xlink="http://www.w3.org/1999/xlink">
    <!-- Generator: Sketch 55.2 (78181) - https://sketchapp.com -->
    <title>Cat_icon</title>
    <desc>Created with Sketch.</desc>
    <g id="logo" stroke="none" stroke-width="1" fill="none" fill-rule="evenodd">
        <g id="画板" transform="translate(-86.000000, -109.000000)">
            <g id="Cat_icon" transform="translate(86.000000, 109.000000)">
                <g id="007-cat" transform="translate(8.000000, 19.000000)" fill="#000000" fill-opacity="0.59926792" fill-rule="nonzero">
                    <path d="M24.9354839,19 C25.4620464,19 25.9781921,18.7869791 26.3500672,18.4151041 C26.7224629,18.0427083 26.9354839,17.5270832 26.9354839,17 C26.9354839,16.4734375 26.7224629,15.9588541 26.3500672,15.5869791 C25.9781921,15.2151041 25.4620464,15 24.9354839,15 C24.4089213,15 23.894338,15.2151041 23.5224629,15.5869791 C23.1490255,15.9588541 22.9354839,16.475 22.9354839,17 C22.9354839,17.5270832 23.1490255,18.0427083 23.5224629,18.4151041 C23.894338,18.7869791 24.4089213,19 24.9354839,19 Z" id="路径"></path>
                    <path d="M40.9354839,19 C41.4620464,19 41.9766297,18.7869791 42.3485048,18.4151041 C42.7219423,18.0427083 42.9354839,17.5270832 42.9354839,17 C42.9354839,16.475 42.7219423,15.9588541 42.3485048,15.5869791 C41.9766297,15.2135416 41.4620464,15 40.9354839,15 C40.4089213,15 39.8927756,15.2135416 39.5209005,15.5869791 C39.1490256,15.9588541 38.9354839,16.4734375 38.9354839,17 C38.9354839,17.5270832 39.1490256,18.0427083 39.5209005,18.4151041 C39.8927756,18.7869791 40.4089213,19 40.9354839,19 Z" id="路径"></path>
                    <path d="M43.0468544,25.0829769 C42.0044451,25.0829769 41.1587167,25.9368031 41.1587167,26.9891935 C41.1587167,28.7529402 39.7376965,30.1875668 37.9911692,30.1875668 C36.6222694,30.1875668 35.4539842,29.306438 35.0119436,28.0768291 C35.2464856,27.849473 35.4564427,27.5784329 35.6349307,27.266687 L36.6463627,25.4979761 C37.2383726,24.4624636 37.2786921,23.3460363 36.7574876,22.4341301 C36.2362828,21.5227203 35.2577948,21 34.0742668,21 L32.0509109,21 C30.8668913,21 29.888895,21.5227203 29.3671987,22.4346265 C28.845994,23.3460363 28.8868053,24.4629601 29.4788152,25.4979761 L30.4902472,27.2671834 C30.6185815,27.491561 30.7641255,27.6936001 30.9224538,27.8752863 C30.5413843,29.2091416 29.321962,30.1880632 27.8793069,30.1880632 C26.1327796,30.1880632 24.7117592,28.7529402 24.7117592,26.9896899 C24.7117592,25.9368031 23.8660309,25.0834733 22.8236215,25.0834733 C21.7807205,25.0834733 20.9354839,25.9368031 20.9354839,26.9896899 C20.9354839,30.855239 24.0504194,34 27.8793069,34 C29.8702104,34 31.6678748,33.1501451 32.9354839,31.7904765 C34.2026012,33.1501451 36.0002656,34 37.9911692,34 C41.8200567,34 44.9354839,30.855239 44.9354839,26.9896899 C44.9349921,25.9363067 44.0897555,25.0829769 43.0468544,25.0829769 L43.0468544,25.0829769 Z" id="路径"></path>
                    <path d="M63.7715058,31.3288755 L57.882349,28.9087352 L63.0600805,28.9087352 C64.0957244,28.9087352 64.9354839,28.0677767 64.9354839,27.0301545 C64.9354839,25.9930214 64.0957244,25.1515738 63.0600805,25.1515738 L57.8833255,25.1515738 L63.7715058,22.732412 C64.729513,22.338595 65.1875206,21.2412886 64.7949427,20.2814512 C64.4018766,19.3216139 63.3066623,18.8627314 62.3486551,19.2560592 L54.8896749,22.3209831 C54.8911397,22.2143346 54.8935811,22.1071968 54.8935811,22.0000589 L54.8935811,1.8786987 C54.8935811,1.18597207 54.5132103,0.549505051 53.9033474,0.222221103 C53.2939728,-0.104573787 52.5542271,-0.0688611164 51.9785438,0.31566083 L45.9936839,4.31351535 C42.2285493,1.52255111 37.6445675,0 32.9355858,0 C28.2266042,0 23.6431106,1.52255111 19.8784644,4.31351535 L13.8931162,0.31566083 C13.317433,-0.0688611164 12.5776873,-0.104573787 11.9683127,0.222221103 C11.3584496,0.549505051 10.9780788,1.18597207 10.9780788,1.8786987 L10.9780788,22.0000589 C10.9780788,22.1071968 10.9805202,22.2138454 10.9819851,22.3209831 L3.52300496,19.2560592 C2.56499763,18.8627314 1.46978351,19.3211247 1.07671723,20.2814512 C0.68365108,21.2412886 1.14165869,22.338595 2.10015415,22.732412 L7.98882267,25.152063 L2.81109124,25.152063 C1.77593558,25.152063 0.936580623,25.9930214 0.936580623,27.0306437 C0.936580623,28.0677767 1.77593558,28.9092243 2.81109124,28.9092243 L7.98931105,28.9092243 L2.0996659,31.3288755 C1.14165869,31.7222033 0.68316283,32.8195097 1.07622898,33.779347 C1.37408031,34.5063186 2.07378704,34.9461217 2.81206787,34.9456325 C3.04888411,34.9456325 3.2896066,34.9006248 3.52251659,34.8047389 L12.8823746,30.9585406 C16.3130367,38.63675 24.0107862,44 32.9355858,44 C41.8603855,44 49.558135,38.63675 52.9887971,30.9585406 L62.3486551,34.8047389 C62.5815651,34.9006248 62.8222876,34.9456325 63.0595922,34.9456325 C63.7973847,34.9456325 64.4975796,34.5063186 64.7949427,33.779347 C65.1875206,32.8199989 64.729513,31.7222033 63.7715058,31.3288755 Z M32.9355858,40.2428386 C25.5752385,40.2428386 19.2207499,35.8438289 16.353564,29.5324827 L18.2134262,28.7683308 C18.9175275,28.4792056 19.3769998,27.7923494 19.3769998,27.0301545 C19.3769998,26.2679596 18.9170391,25.5815927 18.2134262,25.2924673 L14.8262212,23.9006543 C14.7612798,23.2759283 14.7275885,22.6419073 14.7275885,22.0000589 L14.7275885,5.38880717 L18.9316876,8.19689392 C19.6269997,8.66115771 20.5449679,8.60832263 21.1826628,8.0677415 C24.4619579,5.28802908 28.6357835,3.75727938 32.9355858,3.75727938 C37.2353882,3.75727938 41.4097022,5.28802908 44.6885089,8.0677415 C45.3262038,8.60881181 46.2446603,8.66115771 46.9399724,8.19689392 L51.1435832,5.38880717 L51.1435832,22.0000589 C51.1435832,22.6419073 51.1098919,23.2759283 51.0449505,23.9006543 L47.6841126,25.2817047 C47.4272769,25.3824827 47.1909489,25.5409879 46.9946598,25.7523282 C46.4634102,26.3261759 46.3428047,27.1705588 46.6919256,27.8706236 C46.9067693,28.3006425 47.2651676,28.6142284 47.6821595,28.7786042 L49.5176077,29.5324827 C46.6504218,35.8438289 40.2964215,40.2428386 32.9355858,40.2428386 L32.9355858,40.2428386 Z" id="形状"></path>
                </g>
                <circle id="椭圆形备份" stroke-opacity="0.59965035" stroke="#000000" stroke-width="4" cx="40" cy="40" r="38"></circle>
            </g>
        </g>
    </g>
</svg>