<?xml version="1.0" encoding="UTF-8"?>
<svg width="32px" height="32px" viewBox="0 0 32 32" version="1.1" xmlns="http://www.w3.org/2000/svg" xmlns:xlink="http://www.w3.org/1999/xlink">
    <!-- Generator: Sketch 55.2 (78181) - https://sketchapp.com -->
    <title>形状结合</title>
    <desc>Created with Sketch.</desc>
    <g id="Map" stroke="none" stroke-width="1" fill="none" fill-rule="evenodd" fill-opacity="0.25">
        <g id="Web/Lost/Shelter" transform="translate(-757.000000, -116.000000)" fill="#000000">
            <g id="收容/領養資訊卡" transform="translate(476.000000, 100.000000)">
                <path d="M297,16 C305.836556,16 313,23.163444 313,32 C313,40.836556 305.836556,48 297,48 C288.163444,48 281,40.836556 281,32 C281,23.163444 288.163444,16 297,16 Z M297,45.8181818 C300.66481,45.8181818 304.179518,44.3623418 306.77093,41.7709301 C309.362342,39.1795183 310.818182,35.6648097 310.818182,32 C310.818182,24.3684289 304.631571,18.1818182 297,18.1818182 C289.368429,18.1818182 283.181818,24.3684289 283.181818,32 C283.181818,39.6315711 289.368429,45.8181818 297,45.8181818 Z M303.031634,25.9984001 C303.387929,26.4083622 303.400553,27.0143374 303.06164,27.4387841 L298.763295,31.939984 L303.06164,36.441184 C303.354715,36.7279286 303.468636,37.1513992 303.358988,37.5464983 C303.24934,37.9415974 302.933481,38.245779 302.534555,38.3404524 C302.135628,38.4351258 301.716786,38.3053039 301.441321,38.0015999 L297.172982,33.560416 L292.52957,38.0616159 C292.242845,38.3547118 291.819404,38.4686405 291.424333,38.3589849 C291.029261,38.2493294 290.725101,37.9334485 290.630434,37.5344941 C290.535767,37.1355398 290.66558,36.7166682 290.969263,36.441184 L295.58267,32 L290.969263,27.558816 C290.66558,27.2833318 290.535767,26.8644602 290.630434,26.4655059 C290.725101,26.0665515 291.029261,25.7506706 291.424333,25.6410151 C291.819404,25.5313595 292.242845,25.6452882 292.52957,25.9383841 L297.172982,30.439584 L301.441321,25.9984001 C301.880634,25.559603 302.592321,25.559603 303.031634,25.9984001 Z" id="形状结合"></path>
            </g>
        </g>
    </g>
</svg>