<?xml version="1.0" encoding="UTF-8"?>
<svg width="57px" height="56px" viewBox="0 0 57 56" version="1.1" xmlns="http://www.w3.org/2000/svg" xmlns:xlink="http://www.w3.org/1999/xlink">
    <!-- Generator: Sketch 55.2 (78181) - https://sketchapp.com -->
    <title>Data_icon</title>
    <desc>Created with Sketch.</desc>
    <defs>
        <circle id="path-1" cx="28.3" cy="28" r="28"></circle>
    </defs>
    <g id="logo" stroke="none" stroke-width="1" fill="none" fill-rule="evenodd">
        <g id="画板" transform="translate(-180.000000, 0.000000)">
            <g id="Data_icon" transform="translate(180.000000, 0.000000)">
                <mask id="mask-2" fill="white">
                    <use xlink:href="#path-1"></use>
                </mask>
                <circle stroke="#000000" stroke-width="4" cx="28.3" cy="28" r="26"></circle>
                <g id="041-medal" mask="url(#mask-2)" fill="#000000" fill-rule="nonzero">
                    <g transform="translate(11.300000, 1.000000)">
                        <path d="M20.4841644,15.7978058 L23.7865147,12.4465942 L33.5860681,2.50053408 C33.9987679,2.08168027 34.1224274,1.45149229 33.8991637,0.904083203 C33.6755239,0.356674219 33.1493129,0 32.5655945,0 L21.6339356,0 C21.2513049,0 20.8840848,0.15411377 20.613462,0.429153418 L17.3002116,3.79180908 L13.9869613,0.429153418 C13.7163385,0.15411377 13.3491183,0 12.9664877,0 L2.03482879,0 C1.4511104,0 0.924523401,0.356674219 0.701259613,0.904464746 C0.47799573,1.45149229 0.601279464,2.08168027 1.01435517,2.50053408 L14.1158829,15.7978058 C6.25917603,17.3152924 0.300211589,24.3373871 0.300211589,32.7465058 C0.300211589,42.2599793 7.92651326,50 17.3002116,50 C26.6739099,50 34.3002116,42.2599793 34.3002116,32.7465058 C34.3002116,24.3373871 28.3412472,17.3152924 20.4841644,15.7978058 Z M18.7168783,5.63830031 L21.6601532,2.77777778 L28.6335449,2.77777778 L22.2039568,9.02777778 L18.7168783,5.63830031 Z M11.9590053,2.77777778 L20.1335449,11.1516128 L16.7834986,14.5833333 L5.25854492,2.77777778 L11.9590053,2.77777778 Z M17.3002116,47.2222222 C9.48852997,47.2222222 3.13354492,40.8357062 3.13354492,32.9861111 C3.13354492,25.1361368 9.48852997,18.75 17.3002116,18.75 C25.1115159,18.75 31.4668783,25.1361368 31.4668783,32.9861111 C31.4668783,40.8357062 25.1115159,47.2222222 17.3002116,47.2222222 Z" id="形状"></path>
                        <path d="M17.3006143,29.8611111 C12.6132506,29.8611111 8.80021159,33.5991485 8.80021159,38.1939181 C8.80021159,39.0056423 9.03983542,39.793678 9.4929056,40.4731417 C10.2822546,41.6551953 11.6124688,42.3611111 13.051017,42.3611111 C14.0965017,42.3611111 14.9031681,42.1265955 15.6151931,41.9197164 C16.1991503,41.7499491 16.7037698,41.6034755 17.3006143,41.6034755 C17.8970561,41.6034755 18.4016756,41.7499491 18.9856328,41.9197164 C19.6976578,42.1265955 20.5043241,42.3611111 21.5498088,42.3611111 C22.9887598,42.3611111 24.318974,41.6551953 25.1079203,40.4727468 C25.5609905,39.7940728 25.8002116,39.0060371 25.8002116,38.1939181 C25.8006143,33.5991485 21.9875754,29.8611111 17.3006143,29.8611111 L17.3006143,29.8611111 Z M22.0745484,38.3877694 C21.8624599,38.7014004 21.5063413,38.8888889 21.1213375,38.8888889 C20.5349287,38.8888889 20.0395282,38.7466431 19.4657814,38.5817759 C18.7662061,38.3808679 17.9732485,38.1531211 16.9464397,38.1531211 C15.9192352,38.1531211 15.1266734,38.3808679 14.4270981,38.5817759 C13.8529556,38.7466431 13.3571593,38.8888889 12.7711462,38.8888889 C12.3861424,38.8888889 12.0300237,38.7014004 11.818331,38.3881528 C11.6972507,38.2087159 11.6335449,38.0009066 11.6335449,37.7865793 C11.6335449,34.9481798 14.0167702,32.6388889 16.9464397,32.6388889 C19.8757135,32.6388889 22.2585449,34.9481798 22.2585449,37.7865793 C22.2589388,38.00129 22.1948374,38.2090993 22.0745484,38.3877694 Z" id="形状"></path>
                        <path d="M10.625,29.8611111 C10.9979818,29.8611111 11.3635851,29.7128182 11.6269966,29.4545718 C11.890408,29.1952401 12.0416667,28.8378906 12.0416667,28.4722222 C12.0416667,28.1065538 11.890408,27.7481192 11.6269966,27.4898727 C11.3635851,27.2316261 10.9979818,27.0833333 10.625,27.0833333 C10.2516494,27.0833333 9.88715278,27.2316261 9.62374137,27.4898727 C9.36032996,27.7481192 9.20833333,28.1065538 9.20833333,28.4722222 C9.20833333,28.8378906 9.36032996,29.1956019 9.62374137,29.4545718 C9.88715278,29.7131799 10.2516494,29.8611111 10.625,29.8611111 Z" id="路径"></path>
                        <path d="M14.875,27.7777778 C15.2479817,27.7777778 15.6124783,27.6298467 15.8769965,27.3712384 C16.1404079,27.1129919 16.2916667,26.7545573 16.2916667,26.3888889 C16.2916667,26.0232205 16.1404079,25.665871 15.8769965,25.4076244 C15.6124783,25.1482929 15.2479817,25 14.875,25 C14.5020182,25 14.1375217,25.1482929 13.8737413,25.4076244 C13.609592,25.665871 13.4583333,26.0232205 13.4583333,26.3888889 C13.4583333,26.7545573 13.609592,27.1129919 13.8737413,27.3712384 C14.1375217,27.6298467 14.5020182,27.7777778 14.875,27.7777778 Z" id="路径"></path>
                        <path d="M19.125,27.7777778 C19.496875,27.7777778 19.8624782,27.6298467 20.1258897,27.3712384 C20.3893012,27.1129919 20.5416667,26.7545573 20.5416667,26.3888889 C20.5416667,26.0232205 20.3893012,25.665871 20.1258897,25.4076244 C19.8624782,25.1482929 19.496875,25 19.125,25 C18.7516493,25 18.3864149,25.1482929 18.1226346,25.4076244 C17.8592231,25.665871 17.7083333,26.0232205 17.7083333,26.3888889 C17.7083333,26.7545573 17.8592231,27.1129919 18.1226346,27.3712384 C18.3864149,27.6298467 18.7516493,27.7777778 19.125,27.7777778 Z" id="路径"></path>
                        <path d="M24.3773654,29.4545718 C24.6407769,29.1952401 24.7916667,28.8378906 24.7916667,28.4722222 C24.7916667,28.1065538 24.6407769,27.7481192 24.3773654,27.4898727 C24.1135851,27.2316261 23.7483507,27.0833333 23.375,27.0833333 C23.0020182,27.0833333 22.6375218,27.2316261 22.3730035,27.4898727 C22.1095921,27.7481192 21.9583333,28.1065538 21.9583333,28.4722222 C21.9583333,28.8378906 22.1095921,29.1956019 22.3730035,29.4545718 C22.6375218,29.7131799 23.0020182,29.8611111 23.375,29.8611111 C23.7483507,29.8611111 24.1135851,29.7128182 24.3773654,29.4545718 Z" id="路径"></path>
                    </g>
                </g>
            </g>
        </g>
    </g>
</svg>