<?xml version="1.0" encoding="UTF-8"?>
<svg width="80px" height="80px" viewBox="0 0 80 80" version="1.1" xmlns="http://www.w3.org/2000/svg" xmlns:xlink="http://www.w3.org/1999/xlink">
    <!-- Generator: Sketch 55.2 (78181) - https://sketchapp.com -->
    <title>Dog_icon</title>
    <desc>Created with Sketch.</desc>
    <g id="logo" stroke="none" stroke-width="1" fill="none" fill-rule="evenodd">
        <g id="画板" transform="translate(0.000000, -109.000000)">
            <g id="Dog_icon" transform="translate(0.000000, 109.000000)">
                <g id="006-dog" transform="translate(8.000000, 16.000000)" fill="#000000" fill-opacity="0.600961538" fill-rule="nonzero">
                    <path d="M64.5581436,20.7774196 L49.3867493,2.85578942 C49.199791,2.60163736 48.9954758,2.36117041 48.7757874,2.13536602 C48.7133027,2.06303043 48.6458588,1.99753746 48.5754395,1.93693197 C47.3148345,0.738995987 45.6029511,0 43.7184907,0 L21.2820053,0 C19.3940735,0 17.6797104,0.740951003 16.4191055,1.9423083 C16.3556289,1.99704874 16.2951279,2.05618794 16.238594,2.12070346 C16.0124588,2.35188405 15.8026885,2.59821605 15.6112671,2.85872188 L0.441856416,20.7774196 C0.156211885,21.1146598 0,21.5403645 0,21.9797544 C0,26.8941753 4.05654907,30.8921828 9.04342651,30.8921828 C10.9933472,30.8921828 12.7994537,30.2787966 14.2777634,29.2406832 L14.2777634,36.0514695 C14.2777634,41.1442859 18.1934738,45.3509911 23.2130813,45.9057269 C24.7558594,49.5542752 28.3918762,52 32.5,52 C36.6081238,52 40.2446365,49.5542752 41.7864228,45.9052382 C46.8065262,45.3509911 50.7217407,41.1442859 50.7217407,36.0514695 L50.7217407,29.2401943 C52.2005463,30.2787966 54.0066528,30.8921828 55.9565735,30.8921828 C60.942955,30.8921828 65,26.8941753 65,21.9797544 C65,21.5403645 64.8437881,21.1146598 64.5581436,20.7774196 Z M9.04342651,27.1385524 C6.37443549,27.1385524 4.16564941,25.1605651 3.84777072,22.6136682 L14.2777635,10.2926697 L14.2777635,21.9797544 C14.2782593,24.8243024 11.9296265,27.1385524 9.04342651,27.1385524 Z M32.5,48.2463696 C30.3720474,48.2463696 28.4479141,47.1916386 27.3102951,45.5284089 C29.4194031,44.8852086 31.2339402,43.5763256 32.5,41.8510241 C33.7660598,43.5763256 35.5805969,44.8852086 37.6897049,45.5284089 C36.5525818,47.1916386 34.6284485,48.2463696 32.5,48.2463696 Z M32.7415085,33.7816962 C32.6492691,33.9395637 32.5639724,34.0441571 32.5,34.1081838 C32.4360276,34.0441571 32.3512268,33.9395637 32.2589874,33.7816962 L30.2183152,30.2993242 C30.1260757,30.1414568 30.0769805,30.0168245 30.0521851,29.9298262 C30.1404571,29.9078323 30.2748489,29.8873047 30.4598237,29.8873047 L34.5401763,29.8873047 C34.7251511,29.8873047 34.8595429,29.9078323 34.9478149,29.9298262 C34.9235154,30.0168245 34.8744202,30.1414568 34.7816848,30.2993242 L32.7415085,33.7816962 Z M46.913147,36.0514695 C46.913147,39.4502646 44.1077805,42.2156346 40.6587219,42.2156346 C37.6430893,42.2156346 35.1194,40.1012849 34.5327378,37.2977922 C35.1144409,36.9116765 35.6296921,36.3584071 36.0398101,35.6585115 L38.0804825,32.1756507 C38.9250183,30.7333377 39.0068435,29.2186893 38.3041382,28.0197757 C37.6019287,26.821351 36.2302398,26.1336743 34.5401763,26.1336743 L30.4598237,26.1336743 C28.7697602,26.1336743 27.3980713,26.821351 26.6958618,28.0197757 C25.9931565,29.2186893 26.0749817,30.7333377 26.9200134,32.1761394 L28.9601899,35.6585115 C29.3703079,36.3584071 29.8855591,36.9116765 30.4672622,37.2977922 C29.8806,40.1012849 27.3569107,42.2161233 24.3412781,42.2161233 C20.8922195,42.2161233 18.0863571,39.4507533 18.0863571,36.0514695 L18.0863571,6.9026722 C18.0863571,6.26044944 18.2832336,5.66270331 18.6189651,5.1641744 L19.0642929,4.63827501 C19.6395493,4.09135943 20.4211045,3.75363041 21.2815093,3.75363041 L43.7184907,3.75363041 C44.5808792,3.75363041 45.3639221,4.09282572 45.9396743,4.64316262 L46.375084,5.15782051 C46.7142868,5.65830456 46.9126511,6.25947199 46.913147,6.90658224 L46.913147,6.9095147 L46.913147,36.0514695 Z M55.9565735,27.1385524 C53.0703735,27.1385524 50.7222366,24.8243024 50.7222366,21.9797544 L50.7222366,10.2921808 L61.1522293,22.6136682 C60.8343506,25.1605651 58.6255645,27.1385524 55.9565735,27.1385524 Z" id="形状"></path>
                    <path d="M24,16 C23.4734375,16 22.9588541,16.2130208 22.5864583,16.5864584 C22.2130208,16.9583333 22,17.4729167 22,18 C22,18.5265625 22.2130208,19.0421875 22.5864583,19.4145833 C22.9588541,19.7864584 23.4734375,20 24,20 C24.5265625,20 25.0427083,19.7864584 25.4145833,19.4145833 C25.7864583,19.0421875 26,18.5265625 26,18 C26,17.4729167 25.7864583,16.9583333 25.4145833,16.5864584 C25.0427083,16.2130208 24.5265625,16 24,16 Z" id="路径"></path>
                    <path d="M41,16 C40.4734375,16 39.9572917,16.2130208 39.5854167,16.5864584 C39.2135417,16.9583333 39,17.4729167 39,18 C39,18.5265625 39.2135417,19.0421875 39.5854167,19.4145833 C39.9572917,19.7864584 40.4734375,20 41,20 C41.5265625,20 42.0411459,19.7864584 42.4135417,19.4145833 C42.7869792,19.0421875 43,18.5265625 43,18 C43,17.4729167 42.7869792,16.9583333 42.4135417,16.5864584 C42.0411459,16.2130208 41.5265625,16 41,16 Z" id="路径"></path>
                </g>
                <circle id="椭圆形" stroke-opacity="0.59965035" stroke="#000000" stroke-width="4" cx="40" cy="40" r="38"></circle>
            </g>
        </g>
    </g>
</svg>