<?xml version="1.0" encoding="UTF-8"?>
<svg width="57px" height="56px" viewBox="0 0 57 56" version="1.1" xmlns="http://www.w3.org/2000/svg" xmlns:xlink="http://www.w3.org/1999/xlink">
    <!-- Generator: Sketch 55.2 (78181) - https://sketchapp.com -->
    <title>Hospitai_icon</title>
    <desc>Created with Sketch.</desc>
    <defs>
        <circle id="path-1" cx="28.7" cy="28" r="28"></circle>
    </defs>
    <g id="logo" stroke="none" stroke-width="1" fill="none" fill-rule="evenodd">
        <g id="画板" transform="translate(-119.000000, 0.000000)">
            <g id="Hospitai_icon" transform="translate(119.000000, 0.000000)">
                <mask id="mask-2" fill="white">
                    <use xlink:href="#path-1"></use>
                </mask>
                <circle stroke="#000000" stroke-width="4" cx="28.7" cy="28" r="26"></circle>
                <g id="026-vaccine" mask="url(#mask-2)" fill="#000000" fill-rule="nonzero">
                    <g transform="translate(2.700000, 5.000000)">
                        <path d="M42.6309687,10.1004764 L37.8618982,5.40959195 C37.8612421,5.40894662 37.8609141,5.4083012 37.8602579,5.40765579 C37.8596018,5.40733312 37.8589457,5.40668779 37.8586176,5.40604238 L33.0895473,0.715480617 C32.5977789,0.231451816 31.7999266,0.231451816 31.3081582,0.715480617 C30.8160618,1.19918675 30.8160618,1.98395878 31.3081582,2.46766492 L35.1878464,6.28407069 L32.1988527,9.22406156 L30.7045199,7.75390475 C29.8318689,6.89588309 28.668553,6.42314823 27.4284701,6.42314823 C26.1883871,6.42314823 25.0247431,6.89588309 24.1524202,7.75390475 L7.52513837,24.1085926 C5.7188165,25.8856237 5.7188165,28.7765664 7.52513837,30.5535974 L9.01979931,32.0234315 L0.369072312,40.5323351 C-0.123024104,41.0160413 -0.123024104,41.8004906 0.369072312,42.2845194 C0.614792435,42.5265338 0.93727964,42.647541 1.25976685,42.647541 C1.58192601,42.647541 1.90474126,42.5265338 2.15046138,42.2845194 L10.8011883,33.7759385 L12.2958491,35.2457726 C13.1681721,36.104117 14.3318161,36.5765291 15.571899,36.5765291 C16.811982,36.5765291 17.975626,36.104117 18.8479489,35.2457726 L20.7549865,33.3699996 C20.7553146,33.369677 20.7559707,33.3693543 20.7562988,33.3690316 C20.7566269,33.3683862 20.7569549,33.3680635 20.757283,33.3677408 L24.7747582,29.4161297 C24.7754142,29.4154843 24.7757423,29.4151616 24.7760703,29.414839 C24.7767265,29.4141936 24.7770545,29.4138709 24.7773827,29.4135482 L28.7938736,25.4625825 C28.7945297,25.4619371 28.7955139,25.4612917 28.79617,25.4606463 C28.7968261,25.460001 28.7978103,25.4590329 28.7984665,25.4583876 L35.4749026,18.8914075 C36.3472255,18.0330631 36.8278396,16.888819 36.8278396,15.6690664 C36.8278396,14.4489911 36.3472255,13.3047471 35.4749026,12.4464027 L33.9802417,10.9762459 L36.9692354,8.0362549 L40.8492516,11.8526607 C41.0952997,12.0943524 41.417787,12.2156823 41.7399461,12.2156823 C42.0624333,12.2156823 42.3849204,12.0943524 42.6306406,11.8526607 C43.1230651,11.3689545 43.1230651,10.5841825 42.6309687,10.1004764 Z M15.571899,34.0983016 C15.0046759,34.0983016 14.4738679,33.8833929 14.0772382,33.4935883 L11.6935231,31.1486301 C11.692867,31.1483074 11.6925389,31.147662 11.6922109,31.1473394 C11.6918828,31.1470167 11.6912267,31.146694 11.6908986,31.1460486 L9.30685548,28.8010904 C8.48275802,27.9905035 8.48275802,26.6713637 9.30685548,25.8607768 L22.6577593,12.7287527 L30.4174637,20.3612416 L27.9054755,22.8317246 L25.9341373,20.8927053 C25.4420409,20.4086764 24.6445166,20.4086764 24.1524202,20.8927053 C23.6606518,21.3764113 23.6606518,22.1608607 24.1524202,22.6448895 L26.1240865,24.5842316 L23.8853759,26.7862399 L20.0056877,22.9698342 C19.5135913,22.4858054 18.716067,22.486128 18.2239707,22.9698342 C17.7322023,23.453863 17.7322023,24.2383123 18.2242987,24.722341 L22.1039868,28.5384242 L19.8656042,30.7401098 L17.894266,28.8007677 C17.4021696,28.3170617 16.6046454,28.3170617 16.1125489,28.8007677 C15.6204526,29.2847965 15.6204526,30.0692459 16.1125489,30.5532747 L18.0842152,32.4926167 L17.0665599,33.4932657 C16.6699301,33.8837155 16.1391222,34.0983016 15.571899,34.0983016 L15.571899,34.0983016 Z M33.6935136,17.1389005 L32.1988527,18.6090573 L24.4394764,10.9765685 L25.9338092,9.50641171 C26.3304389,9.11628452 26.861247,8.90169844 27.428142,8.90169844 C27.9953652,8.90169844 28.5261731,9.11628452 28.9228028,9.50641171 L33.6931855,14.1989096 C34.0898152,14.5890368 34.308306,15.1111425 34.308306,15.6690664 C34.308306,16.2269903 34.0898152,16.749096 33.6935136,17.1389005 L33.6935136,17.1389005 Z" id="形状"></path>
                        <path d="M35.2457346,31.3688525 C31.3588581,31.3688525 28.1967213,34.3200636 28.1967213,37.9476718 C28.1967213,38.5891582 28.3954403,39.2113188 28.7711695,39.7471375 C29.4251053,40.6803786 30.5282461,41.2377049 31.721896,41.2377049 C32.588578,41.2377049 33.2578768,41.0525529 33.8483561,40.8895318 C34.3326293,40.7554992 34.751108,40.6398571 35.2457346,40.6398571 C35.7403613,40.6398571 36.1588401,40.7554992 36.6434472,40.8895318 C37.2335925,41.0525529 37.9028914,41.2377049 38.7695733,41.2377049 C39.9628893,41.2377049 41.0663641,40.6806903 41.7209678,39.7471375 C42.096363,39.2110071 42.295082,38.5888465 42.295082,37.9476718 C42.295082,34.3200636 39.1326113,31.3688525 35.2457346,31.3688525 L35.2457346,31.3688525 Z M39.5744688,38.4361116 C39.3954547,38.691397 39.0948714,38.8438201 38.7695733,38.8438201 C38.2749468,38.8438201 37.856468,38.728178 37.3721948,38.5941454 C36.7817155,38.4308127 36.1124166,38.2456606 35.2457346,38.2456606 C34.3790527,38.2456606 33.7097538,38.4308127 33.1196085,38.5941454 C32.6350013,38.728178 32.2165225,38.8438201 31.721896,38.8438201 C31.396932,38.8438201 31.0963486,38.6917087 30.9173345,38.4364233 C30.8154702,38.2911694 30.7616992,38.1222259 30.7616992,37.9476718 C30.7616992,35.6401289 32.7732697,33.7627373 35.2457346,33.7627373 C37.7181996,33.7627373 39.7297717,35.6401289 39.7297717,37.9476718 C39.7301041,38.1222259 39.6763331,38.2911694 39.5744688,38.4361116 Z" id="形状"></path>
                        <path d="M30.6037227,31.6610998 C30.8662312,31.3978569 31.0163934,31.0354851 31.0163934,30.6639344 C31.0163934,30.2927511 30.8662312,29.930012 30.6037227,29.6667692 C30.340847,29.4046278 29.9777408,29.2540984 29.6065574,29.2540984 C29.235374,29.2540984 28.8715335,29.4046278 28.6093921,29.6667692 C28.3472506,29.930012 28.1967213,30.2927511 28.1967213,30.6639344 C28.1967213,31.0354851 28.3472506,31.398224 28.6093921,31.6610998 C28.8726349,31.9236083 29.235374,32.0737705 29.6065574,32.0737705 C29.9777408,32.0737705 30.340847,31.9236083 30.6037227,31.6610998 Z" id="路径"></path>
                        <path d="M34.1283127,29.5463456 C34.3904542,29.2838372 34.5409836,28.9203638 34.5409836,28.5491803 C34.5409836,28.1787312 34.3904542,27.8148907 34.1283127,27.5516479 C33.8650699,27.2895066 33.5023309,27.1393443 33.1311475,27.1393443 C32.7595969,27.1393443 32.3961236,27.2895066 32.1339821,27.5516479 C31.8718408,27.8148907 31.7213115,28.1776298 31.7213115,28.5491803 C31.7213115,28.9203638 31.8714737,29.2838372 32.1339821,29.5463456 C32.3961236,29.8084871 32.7595969,29.9590164 33.1311475,29.9590164 C33.5012295,29.9590164 33.8650699,29.8084871 34.1283127,29.5463456 L34.1283127,29.5463456 Z" id="路径"></path>
                        <path d="M38.357821,29.5463456 C38.6199624,29.2838372 38.7704918,28.9203638 38.7704918,28.5491803 C38.7704918,28.1776298 38.6199624,27.8148907 38.357821,27.5516479 C38.0956796,27.2895066 37.7318391,27.1393443 37.3606557,27.1393443 C36.9891052,27.1393443 36.6263661,27.2895066 36.3642247,27.5516479 C36.1009819,27.8148907 35.9508197,28.1776298 35.9508197,28.5491803 C35.9508197,28.9203638 36.1009819,29.2838372 36.3642247,29.5463456 C36.6263661,29.8084871 36.9902066,29.9590164 37.3606557,29.9590164 C37.7318391,29.9590164 38.0956796,29.8084871 38.357821,29.5463456 L38.357821,29.5463456 Z" id="路径"></path>
                        <path d="M41.8824112,31.6610998 C42.1445525,31.3978569 42.295082,31.0354851 42.295082,30.6639344 C42.295082,30.2927511 42.1445525,29.930012 41.8824112,29.6667692 C41.6202699,29.4046278 41.2564293,29.2540984 40.8852459,29.2540984 C40.5140625,29.2540984 40.1513234,29.4046278 39.8880806,29.6667692 C39.6259393,29.930012 39.4754098,30.2927511 39.4754098,30.6639344 C39.4754098,31.0354851 39.6259393,31.398224 39.8880806,31.6610998 C40.1513234,31.9236083 40.5140625,32.0737705 40.8852459,32.0737705 C41.2564293,32.0737705 41.6191684,31.9236083 41.8824112,31.6610998 Z" id="路径"></path>
                    </g>
                </g>
            </g>
        </g>
    </g>
</svg>