<?xml version="1.0" encoding="UTF-8"?>
<svg width="132px" height="132px" viewBox="0 0 132 132" version="1.1" xmlns="http://www.w3.org/2000/svg" xmlns:xlink="http://www.w3.org/1999/xlink">
    <!-- Generator: Sketch 55.2 (78181) - https://sketchapp.com -->
    <title>index备份</title>
    <desc>Created with Sketch.</desc>
    <g id="组件" stroke="none" stroke-width="1" fill="none" fill-rule="evenodd" fill-opacity="0.8">
        <g id="Web-Header" transform="translate(-381.000000, -56.000000)" fill="#161426">
            <g id="Header">
                <path d="M509.815404,109.814381 L452.858744,58.2917333 C449.478547,55.2360889 444.521453,55.2360889 441.141256,58.2917333 L384.184596,109.814381 C381.356169,112.384018 380.286022,116.534699 381.48503,120.284938 C382.684038,124.035176 385.909074,126.624523 389.620544,126.816855 L389.620544,178.339503 C389.620544,183.674848 393.676806,188 398.680458,188 L495.319542,188 C500.323194,188 504.379456,183.674848 504.379456,178.339503 L504.379456,126.849057 C508.090926,126.656725 511.315962,124.067378 512.51497,120.317139 C513.713978,116.5669 512.643831,112.41622 509.815404,109.846583 M447,179 L436,179 L436,149 L458,149 L458,179 L447,179 Z M495.35631,119.285714 L495.35631,179 L465.133616,179 L465.133616,150.714286 C465.133616,145.50703 461.074268,141.285714 456.066808,141.285714 L437.933192,141.285714 C432.925732,141.285714 428.866384,145.50703 428.866384,150.714286 L428.866384,179 L398.64369,179 L398.64369,119.285714 L390,119.285714 L447,69 L504,119.285714 L495.35631,119.285714 Z" id="index备份"></path>
            </g>
        </g>
    </g>
</svg>