<?xml version="1.0" encoding="UTF-8"?>
<svg width="56px" height="56px" viewBox="0 0 56 56" version="1.1" xmlns="http://www.w3.org/2000/svg" xmlns:xlink="http://www.w3.org/1999/xlink">
    <!-- Generator: Sketch 55.2 (78181) - https://sketchapp.com -->
    <title>Lost_icon</title>
    <desc>Created with Sketch.</desc>
    <defs>
        <circle id="path-1" cx="28" cy="28" r="28"></circle>
    </defs>
    <g id="logo" stroke="none" stroke-width="1" fill="none" fill-rule="evenodd">
        <g id="画板" transform="translate(-60.000000, 0.000000)">
            <g id="Lost_icon" transform="translate(60.000000, 0.000000)">
                <mask id="mask-2" fill="white">
                    <use xlink:href="#path-1"></use>
                </mask>
                <circle stroke="#000000" stroke-width="4" cx="28" cy="28" r="26"></circle>
                <g id="036-missing" mask="url(#mask-2)" fill="#000000" fill-rule="nonzero">
                    <g transform="translate(8.000000, 9.000000)">
                        <path d="M15.3582117,5.19230769 C9.39189051,5.19230769 4.53773585,9.85081169 4.53773585,15.576923 C4.53773585,21.3030344 9.39189051,25.9615385 15.3584905,25.9615385 C21.3250906,25.9615385 26.1792453,21.3030344 26.1792453,15.576923 C26.1792453,9.85081169 21.3250906,5.19230769 15.3582117,5.19230769 Z M15.3584905,23.9063476 C10.5729399,23.9063476 6.67952075,20.1698559 6.67952075,15.5771907 C6.67952075,10.9842579 10.5729399,7.24776621 15.3582117,7.24776621 C20.1440412,7.24776621 24.0374604,10.9842579 24.0374604,15.576923 C24.0374604,20.1695882 20.1440412,23.9063476 15.3584905,23.9063476 Z" id="形状"></path>
                        <path d="M35.505431,29.1609915 L28.8832835,22.7201292 C30.2340244,20.4707168 30.9549549,17.9050398 30.9549549,15.2310677 C30.9549549,11.2551303 29.3632577,7.51706495 26.4728883,4.70597296 C23.582519,1.89434223 19.7394024,0.346153846 15.6517288,0.346153846 C11.5643322,0.346153846 7.72149257,1.89434223 4.83112323,4.70570359 C1.94075388,7.51706495 0.349056604,11.2551303 0.349056604,15.2307983 C0.349056604,19.2067357 1.94075388,22.9445317 4.83112323,25.755893 C7.72149257,28.5672544 11.5643322,30.1154427 15.6517288,30.1154427 C18.4011248,30.1154427 21.0391823,29.4142188 23.3515331,28.1001309 L29.9736806,34.541532 C30.7361554,35.2831645 31.7379248,35.6538462 32.7394173,35.6538462 C33.7411868,35.6538462 34.7426793,35.2831645 35.505431,34.541532 C36.2440871,33.8227976 36.6509434,32.8675381 36.6509434,31.851127 C36.6509434,30.8349853 36.2440871,29.8797259 35.505431,29.1609915 Z M2.47612028,15.2307983 C2.47612028,8.16414138 8.38675386,2.41507444 15.6517288,2.41507444 C22.9172576,2.41507444 28.8278912,8.16414138 28.8278912,15.2307983 C28.8278912,22.2974552 22.9172576,28.0465221 15.6517288,28.0465221 C8.38675386,28.0465221 2.47612028,22.2974552 2.47612028,15.2307983 Z M34.0012535,33.078471 C33.3055264,33.7551805 32.1733082,33.7551805 31.4775811,33.078471 L25.1382112,26.9121179 C25.6018446,26.5543671 26.0480295,26.1691383 26.4728883,25.755893 C26.8977471,25.3426477 27.293802,24.9089287 27.6616067,24.4576992 L34.0012535,30.6240523 C34.3383155,30.9519009 34.5238797,31.3875056 34.5238797,31.851127 C34.5238797,32.3147485 34.3383155,32.7506226 34.0012535,33.078471 Z" id="形状"></path>
                        <path d="M15.3584905,12.8076923 C12.0864612,12.8076923 9.4245283,15.2920494 9.4245283,18.345804 C9.4245283,18.8852884 9.59153166,19.409029 9.90810715,19.8608735 C10.4588809,20.6462221 11.387521,21.1153846 12.3917905,21.1153846 C13.1216572,21.1153846 13.6848017,20.9595219 14.1818757,20.8220268 C14.5898251,20.7091969 14.9421067,20.6118483 15.3584905,20.6118483 C15.7751556,20.6118483 16.127156,20.7091969 16.5351054,20.8220268 C17.0318983,20.9595219 17.5953238,21.1153846 18.3249094,21.1153846 C19.3297412,21.1153846 20.2583813,20.6462221 20.8094363,19.8603487 C21.1254494,19.4092914 21.2924528,18.8855507 21.2924528,18.345804 C21.2924528,15.2920494 18.63052,12.8076923 15.3584905,12.8076923 Z M19.0024821,18.7572395 C18.8517854,18.9718787 18.5984688,19.0999275 18.3249094,19.0999275 C17.9085255,19.0999275 17.556244,19.002579 17.1485757,18.8897491 C16.6515017,18.7525165 16.0883572,18.5966537 15.3584905,18.5966537 C14.628905,18.5966537 14.0654795,18.7525165 13.5686865,18.8897491 C13.1607372,19.002579 12.8084556,19.0999275 12.3917905,19.0999275 C12.1185123,19.0999275 11.8651957,18.9718787 11.7150614,18.7575019 C11.6290293,18.634701 11.5837641,18.4924829 11.5837641,18.345804 C11.5837641,16.4030304 13.2771334,14.8226245 15.3584905,14.8226245 C17.4401288,14.8226245 19.1332171,16.4030304 19.1332171,18.345804 C19.1332171,18.4924829 19.0879518,18.6349634 19.0024821,18.7572395 L19.0024821,18.7572395 Z" id="形状"></path>
                        <path d="M10.4716981,13.5 C10.7465802,13.5 11.0168264,13.3891226 11.2115345,13.1952223 C11.4070607,13.0021334 11.5188679,12.7341346 11.5188679,12.4615385 C11.5188679,12.188131 11.4070607,11.9201322 11.2115345,11.7270432 C11.0168264,11.5336839 10.7465802,11.4230769 10.4716981,11.4230769 C10.1959979,11.4230769 9.92575173,11.5336839 9.73104363,11.7270432 C9.53606278,11.9201322 9.4245283,12.188131 9.4245283,12.4615385 C9.4245283,12.7341346 9.53606278,13.0021334 9.73104363,13.1952223 C9.92575173,13.3891226 10.1959979,13.5 10.4716981,13.5 Z" id="路径"></path>
                        <path d="M13.6132075,11.4230769 C13.8889077,11.4230769 14.1591539,11.3121996 14.353862,11.1191106 C14.5485701,10.9252104 14.6603774,10.6580229 14.6603774,10.3846154 C14.6603774,10.1112079 14.5485701,9.84402042 14.353862,9.65012019 C14.1591539,9.45703122 13.8889077,9.34615385 13.6132075,9.34615385 C13.3380528,9.34615385 13.0680793,9.45703122 12.8730984,9.65012019 C12.6783903,9.84402042 12.5660377,10.1112079 12.5660377,10.3846154 C12.5660377,10.6580229 12.6783903,10.9252104 12.8730984,11.1191106 C13.0678066,11.3121996 13.3380528,11.4230769 13.6132075,11.4230769 Z" id="路径"></path>
                        <path d="M17.1037736,11.4230769 C17.3794738,11.4230769 17.6491745,11.3121996 17.8444281,11.1191106 C18.0394089,10.9252104 18.1509434,10.6580229 18.1509434,10.3846154 C18.1509434,10.1112079 18.0394089,9.84402042 17.8444281,9.65012019 C17.6491745,9.45703122 17.3794738,9.34615385 17.1037736,9.34615385 C16.8280735,9.34615385 16.5578273,9.45703122 16.3631192,9.65012019 C16.168411,9.84402042 16.0566038,10.1112079 16.0566038,10.3846154 C16.0566038,10.6580229 16.168411,10.9252104 16.3631192,11.1191106 C16.5586454,11.3121996 16.8280735,11.4230769 17.1037736,11.4230769 Z" id="路径"></path>
                        <path d="M20.5943396,13.5 C20.8692217,13.5 21.1394679,13.3891226 21.334176,13.1952223 C21.5291568,13.0021334 21.6415094,12.7341346 21.6415094,12.4615385 C21.6415094,12.188131 21.5291568,11.9201322 21.334176,11.7270432 C21.1394679,11.5336839 20.8700398,11.4230769 20.5943396,11.4230769 C20.3183667,11.4230769 20.0483933,11.5336839 19.8536851,11.7270432 C19.6587043,11.9201322 19.5471698,12.188131 19.5471698,12.4615385 C19.5471698,12.7341346 19.6587043,13.0021334 19.8536851,13.1952223 C20.0483933,13.3891226 20.3183667,13.5 20.5943396,13.5 Z" id="路径"></path>
                    </g>
                </g>
            </g>
        </g>
    </g>
</svg>