<?xml version="1.0" encoding="UTF-8"?>
<svg width="32px" height="32px" viewBox="0 0 32 32" version="1.1" xmlns="http://www.w3.org/2000/svg" xmlns:xlink="http://www.w3.org/1999/xlink">
    <!-- Generator: Sketch 55.2 (78181) - https://sketchapp.com -->
    <title>LOGO</title>
    <desc>Created with Sketch.</desc>
    <g id="组件" stroke="none" stroke-width="1" fill="none" fill-rule="evenodd" fill-opacity="0.8">
        <g id="Web-左控面板" transform="translate(-16.000000, -16.000000)" fill="#161426">
            <g id="Header">
                <path d="M32,48 C23.163444,48 16,40.836556 16,32 C16,23.163444 23.163444,16 32,16 C40.836556,16 48,23.163444 48,32 C48,40.836556 40.836556,48 32,48 Z M28.4002792,17.8101804 C24.8581144,18.1464225 23.0081131,20.3024442 22.8502753,24.2782455 C19.9611749,25.7607937 18.3333157,28.1969437 17.9666977,31.5866956 C18.6989926,31.4894074 19.6064027,31.5697894 20.688928,31.8278417 C20.688928,33.2867978 19.8582446,34.0162758 18.1968779,34.0162758 C20.0056434,38.0113908 23.1411558,38.6163845 27.6034149,35.8312567 C27.5618825,34.3239681 28.0658389,31.3608939 28.9660494,31.3608939 C29.5757699,31.3599435 30.228719,31.8627516 30.8260963,32.90045 C32.6067826,32.1853778 34.4475697,32.1800604 36.3484577,32.8844977 C37.2996739,31.8687618 38.0541349,31.3608939 38.6118409,31.3608939 C39.1695468,31.3608939 39.5556662,33.2585322 39.7701992,37.0538089 C39.6047514,40.6002951 37.5137269,42.3735382 33.4971257,42.3735382 C28.769507,42.3735382 28.769507,40.3366786 27.8695748,39.3824804 C27.1379068,38.5471997 22.8502753,39.1855058 22.8502753,42.3735382 C22.8502753,45.5615706 28.7201278,46.6164279 32.7161121,46.4361021 C37.0938721,46.4361021 46.5366377,42.3735382 46.5366377,31.3618444 C46.5366377,22.4149275 38.6118409,17.4785707 31.4232553,17.4785707 C33.1269409,18.3129628 39.7701992,21.3606854 39.7701992,26.7568238 C39.7701992,32.1529623 31.7497809,30.6816393 31.7497809,27.6892634 C31.7497809,24.6968875 31.8699314,24.1290942 31.2307692,22.4149275 C30.4553216,20.5162502 29.5118249,18.9813345 28.4002792,17.8101804 Z M31.0769231,38.4615385 C31.7566582,38.4615385 32.3076923,37.9105043 32.3076923,37.2307692 C32.3076923,36.5510342 31.7566582,36 31.0769231,36 C30.397188,36 29.8461538,36.5510342 29.8461538,37.2307692 C29.8461538,37.9105043 30.397188,38.4615385 31.0769231,38.4615385 Z M36,38.4615385 C36.6797351,38.4615385 37.2307692,37.9105043 37.2307692,37.2307692 C37.2307692,36.5510342 36.6797351,36 36,36 C35.3202649,36 34.7692308,36.5510342 34.7692308,37.2307692 C34.7692308,37.9105043 35.3202649,38.4615385 36,38.4615385 Z M32.9497198,38.9150749 C32.8113258,39.0985547 33.2428429,39.6923077 33.5359661,39.6923077 C33.8290893,39.6923077 34.2769417,39.1202115 34.1222125,38.9150749 C33.9674833,38.7099383 33.0881138,38.7315951 32.9497198,38.9150749 Z M26,25 C25.4477153,25 25,24.5522847 25,24 C25,23.4477153 25.4477153,23 26,23 C26.5522847,23 27,23.4477153 27,24 C27,24.5522847 26.5522847,25 26,25 Z" id="LOGO"></path>
            </g>
        </g>
    </g>
</svg>