<?xml version="1.0" encoding="UTF-8"?>
<svg width="43px" height="40px" viewBox="0 0 43 40" version="1.1" xmlns="http://www.w3.org/2000/svg" xmlns:xlink="http://www.w3.org/1999/xlink">
    <!-- Generator: Sketch 55.2 (78181) - https://sketchapp.com -->
    <title>编组</title>
    <desc>Created with Sketch.</desc>
    <g id="组件" stroke="none" stroke-width="1" fill="none" fill-rule="evenodd">
        <g id="Input/button" transform="translate(-257.000000, 0.000000)">
            <g id="编组" transform="translate(257.000000, 0.000000)">
                <path d="M0.5,0.5 L0.5,39.5 L38.993278,39.5 C40.928148,39.5 42.5,37.9292705 42.5,35.9999745 L42.5,4.00002553 C42.5,2.06685283 40.9307837,0.5 38.993278,0.5 L0.5,0.5 Z" id="btn" stroke="#BEC0C2" fill="#F1F1F2"></path>
                <g id="@Icons/Map-marker" transform="translate(16.000000, 11.000000)" fill="#C7C9CB">
                    <path d="M11.3204362,5.70566796 C11.3204362,6.38544703 11.2425065,7.08751395 10.953053,7.70042951 L6.90070441,16.325823 C6.66691507,16.8161555 6.15480509,17.1170413 5.62042945,17.1170413 C5.08605381,17.1170413 4.57394383,16.8161555 4.35128731,16.325823 L0.287805907,7.70042951 C-0.00164756335,7.08751395 -0.0795773437,6.38544703 -0.0795773437,5.70566796 C-0.0795773437,2.55193881 2.46983976,-1.87046762e-05 5.62042945,-1.87046762e-05 C8.77101914,-1.87046762e-05 11.3204362,2.55193881 11.3204362,5.70566796 Z M8.47043285,5.70566796 C8.47043285,4.13437534 7.19015788,2.85282463 5.62042945,2.85282463 C4.05070102,2.85282463 2.77042605,4.13437534 2.77042605,5.70566796 C2.77042605,7.27696058 4.05070102,8.55851129 5.62042945,8.55851129 C7.19015788,8.55851129 8.47043285,7.27696058 8.47043285,5.70566796 Z" id="Icons/Map-marker"></path>
                </g>
            </g>
        </g>
    </g>
</svg>