<?xml version="1.0" encoding="UTF-8"?>
<svg width="40px" height="40px" viewBox="0 0 40 40" version="1.1" xmlns="http://www.w3.org/2000/svg" xmlns:xlink="http://www.w3.org/1999/xlink">
    <!-- Generator: Sketch 55.2 (78181) - https://sketchapp.com -->
    <title>编组</title>
    <desc>Created with Sketch.</desc>
    <g id="logo" stroke="none" stroke-width="1" fill="none" fill-rule="evenodd">
        <g id="img-1备份" transform="translate(-197.000000, -174.000000)">
            <g id="收容/搜尋結果" transform="translate(-60.000000, 0.000000)">
                <g id="Button-group" transform="translate(35.000000, 176.000000)">
                    <g id="编组" transform="translate(224.000000, 0.000000)">
                        <rect id="矩形" stroke-opacity="0.25" stroke="#000000" stroke-width="4" x="0" y="0" width="36" height="36" rx="4"></rect>
                        <path d="M18.000476,14.3390259 C17.9933905,14.1244405 18.0656544,13.9156311 18.2013167,13.7586891 L21.464979,10.2332783 C21.6414856,10.0438518 21.8940429,9.96241518 22.1377955,10.01633 C22.3802244,9.9716612 22.6272362,10.0612809 22.795549,10.2549731 L25.8081604,13.7803839 C25.9415118,13.9413987 26.0100981,14.1530962 25.9987952,14.3687951 C25.9874924,14.5844941 25.8972287,14.786479 25.7479081,14.9302102 C25.4308588,15.2337969 24.9489231,15.2146928 24.653326,14.8868205 L22.6449185,12.5980154 L22.6449185,25.1864437 C22.6449185,25.6357584 22.3077204,26 21.8917656,26 C21.4758108,26 21.1386128,25.6357584 21.1386128,25.1864437 L21.1386128,12.7769978 L19.2256046,14.9139391 C19.0971188,15.0669743 18.9147611,15.1542539 18.7235027,15.1542539 C18.5322442,15.1542539 18.3498865,15.0669743 18.2214008,14.9139391 C18.0801169,14.761514 18.0006517,14.5547218 18.000476,14.3390259 Z M13.8809136,26.983941 C13.6283964,27.0353435 13.368262,26.9472398 13.1934593,26.7511104 L10.2045278,23.3880021 C10.077317,23.2476147 10.0045723,23.0633337 10.0002841,22.8706008 C9.99454638,22.6565717 10.0759316,22.449944 10.224454,22.3014594 C10.3640793,22.1619113 10.5524124,22.0874607 10.7460372,22.0952706 C10.939662,22.1030805 11.1218688,22.192477 11.2506538,22.3428515 L13.1286991,24.5262849 L13.1286991,12.7761019 C13.1286991,12.3474727 13.4632467,12 13.875932,12 C14.2886173,12 14.6231649,12.3474727 14.6231649,12.7761019 L14.6231649,24.4279787 L16.6606199,22.4566798 C16.9772525,22.1535829 17.4648366,22.1535829 17.7814692,22.4566798 C18.0728436,22.7596881 18.0728436,23.2505622 17.7814692,23.5535705 L14.5434601,26.7873285 C14.3670553,26.9618175 14.1194451,27.0352965 13.8809136,26.983941 Z" id="形状结合" fill-opacity="0.25" fill="#000000"></path>
                    </g>
                </g>
            </g>
        </g>
    </g>
</svg>